<?xml version="1.0" encoding="utf-8"?>
<svg version="1.1" xmlns="http://www.w3.org/2000/svg" xmlns:xlink="http://www.w3.org/1999/xlink" x="0px" y="0px"
	 viewBox="0 0 256 256" enable-background="new 0 0 256 256" xml:space="preserve">
<g id="图层_3">
	<g>
		<g>
			<path fill="#231F20" d="M128,133.627H43.117c-3.107,0-5.627-2.52-5.627-5.627c0-3.107,2.519-5.627,5.627-5.627H128
				c3.107,0,5.627,2.52,5.627,5.627C133.627,131.107,131.107,133.627,128,133.627z"/>
		</g>
		<g>
			<path fill="#231F20" d="M212.883,91.186H43.117c-3.107,0-5.627-2.52-5.627-5.627s2.519-5.627,5.627-5.627h169.765
				c3.107,0,5.627,2.52,5.627,5.627S215.99,91.186,212.883,91.186z"/>
		</g>
		<g>
			<path fill="#231F20" d="M170.493,176.068H43.117c-3.107,0-5.627-2.52-5.627-5.627c0-3.107,2.519-5.627,5.627-5.627h127.375
				c3.107,0,5.627,2.52,5.627,5.627C176.12,173.549,173.6,176.068,170.493,176.068z"/>
		</g>
	</g>
</g>
</svg>
